<?xml version="1.0" encoding="UTF-8" standalone="no"?>
<svg width="26px" height="25px" viewBox="0 0 26 25" version="1.1" xmlns="http://www.w3.org/2000/svg" xmlns:xlink="http://www.w3.org/1999/xlink">
    <!-- Generator: Sketch 3.8.3 (29802) - http://www.bohemiancoding.com/sketch -->
    <title>Icon_Convenient</title>
    <desc>Created with Sketch.</desc>
    <defs>
        <path d="M15,7.71428571 C15,8.424 14.4156522,9 13.6956522,9 L1.30434783,9 C0.584347826,9 0,8.424 0,7.71428571 L0,1.28571429 C0,0.576 0.584347826,0 1.30434783,0 L13.6956522,0 C14.4156522,0 15,0.576 15,1.28571429 L15,7.71428571 L15,7.71428571 Z" id="path-1"></path>
    </defs>
    <g id="Page-2" stroke="none" stroke-width="1" fill="none" fill-rule="evenodd">
        <g id="Desktop" transform="translate(-143.000000, -429.000000)">
            <g id="Icon_Convenient" transform="translate(143.000000, 430.000000)">
                <g id="Group-4">
                    <g id="Group-3" transform="translate(10.000000, 0.000000)">
                        <g id="Group">
                            <g id="Stroke-923">
                                <use fill="#D8D8D8" xlink:href="#path-1"></use>
                                <use stroke="#4EFBCA" stroke-width="1" stroke-linecap="round" stroke-linejoin="round" fill="#4EFBCA" xlink:href="#path-1"></use>
                            </g>
                        </g>
                    </g>
                    <g id="Group" transform="translate(0.000000, 3.000000)" stroke="#493960" stroke-linejoin="round">
                        <path d="M11.5,10.5240977 L11.5,17.5240977 C11.5,18.6290977 10.604,19.5240977 9.5,19.5240977 L2.5,19.5240977 C1.396,19.5240977 0.5,18.6290977 0.5,17.5240977 L0.5,2.52409766 C0.5,1.42009766 1.396,0.524097656 2.5,0.524097656 L5.5,0.524097656" id="Stroke-263" stroke-linecap="round"></path>
                        <path d="M5.5,4.52409766 L0.5,4.52409766" id="Stroke-264" stroke-linecap="round"></path>
                        <path d="M11.5,15.5240977 L0.5,15.5240977" id="Stroke-265" stroke-linecap="round"></path>
                        <path d="M4.5,2.52409766 L5.5,2.52409766" id="Stroke-266" stroke-linecap="round"></path>
                        <path d="M6.5,17.5240977 C6.5,17.8000977 6.276,18.0240977 6,18.0240977 C5.724,18.0240977 5.5,17.8000977 5.5,17.5240977 C5.5,17.2480977 5.724,17.0240977 6,17.0240977 C6.276,17.0240977 6.5,17.2480977 6.5,17.5240977 L6.5,17.5240977 Z" id="Stroke-267"></path>
                    </g>
                    <g id="Group" transform="translate(8.000000, 2.000000)" stroke-linecap="round" stroke-linejoin="round">
                        <path d="M15,7.71428571 C15,8.424 14.4156522,9 13.6956522,9 L1.30434783,9 C0.584347826,9 0,8.424 0,7.71428571 L0,1.28571429 C0,0.576 0.584347826,0 1.30434783,0 L13.6956522,0 C14.4156522,0 15,0.576 15,1.28571429 L15,7.71428571 L15,7.71428571 Z" id="Stroke-923" stroke="#493960"></path>
                        <path d="M0,3 L15,3" id="Stroke-924" stroke="#493B5E"></path>
                        <path d="M13,5 L11,5" id="Stroke-925" stroke="#493B5E"></path>
                        <path d="M7,5 L2,5" id="Stroke-926" stroke="#493B5E"></path>
                    </g>
                </g>
            </g>
        </g>
    </g>
</svg>