<?xml version="1.0" encoding="UTF-8" standalone="no"?>
<svg width="26px" height="28px" viewBox="0 0 26 28" version="1.1" xmlns="http://www.w3.org/2000/svg" xmlns:xlink="http://www.w3.org/1999/xlink">
    <!-- Generator: Sketch 3.8.3 (29802) - http://www.bohemiancoding.com/sketch -->
    <title>Icon_Empowering</title>
    <desc>Created with Sketch.</desc>
    <defs></defs>
    <g id="Page-2" stroke="none" stroke-width="1" fill="none" fill-rule="evenodd" stroke-linecap="round" stroke-linejoin="round">
        <g id="Desktop" transform="translate(-235.000000, -428.000000)">
            <g id="Icon_Empowering" transform="translate(235.000000, 429.000000)">
                <path d="M8.5,10.4932 L9.5,10.4932 L12.5,13.4932 L12.5,10.4932 L19.5,10.4932 C20.052,10.4932 20.5,10.0442 20.5,9.4932 L20.5,1.4932 C20.5,0.9412 20.052,0.4932 19.5,0.4932 L8.5,0.4932 C7.947,0.4932 7.5,0.9412 7.5,1.4932 L7.5,9.4932 C7.5,10.0442 7.947,10.4932 8.5,10.4932 Z" id="Stroke-1797" stroke="#38FDC8" fill="#27FEC7"></path>
                <g id="Group" transform="translate(0.000000, 1.000000)" stroke="#493A5F">
                    <path d="M7.5,10.4932 L8.5,10.4932 L11.5,13.4932 L11.5,10.4932 L18.5,10.4932 C19.052,10.4932 19.5,10.0442 19.5,9.4932 L19.5,1.4932 C19.5,0.9412 19.052,0.4932 18.5,0.4932 L7.5,0.4932 C6.947,0.4932 6.5,0.9412 6.5,1.4932 L6.5,9.4932 C6.5,10.0442 6.947,10.4932 7.5,10.4932 Z" id="Stroke-1797"></path>
                    <path d="M24,15.0073 C24,16.3883 22.881,17.5073 21.5,17.5073 C20.118,17.5073 19,16.3883 19,15.0073 C19,13.6263 20.118,12.5073 21.5,12.5073 C22.881,12.5073 24,13.6263 24,15.0073 L24,15.0073 Z" id="Stroke-1798"></path>
                    <path d="M25.5,21.5073 L17.5,21.5073 C17.5,19.2993 19.29,17.5073 21.5,17.5073 C23.71,17.5073 25.5,19.2993 25.5,21.5073 L25.5,21.5073 Z" id="Stroke-1799"></path>
                    <path d="M7,15.0073 C7,16.3883 5.881,17.5073 4.5,17.5073 C3.118,17.5073 2,16.3883 2,15.0073 C2,13.6263 3.118,12.5073 4.5,12.5073 C5.881,12.5073 7,13.6263 7,15.0073 L7,15.0073 Z" id="Stroke-1800"></path>
                    <path d="M8.5,21.5073 L0.5,21.5073 C0.5,19.2993 2.29,17.5073 4.5,17.5073 C6.71,17.5073 8.5,19.2993 8.5,21.5073 L8.5,21.5073 Z" id="Stroke-1801"></path>
                    <path d="M15.5,18.0073 C15.5,19.3883 14.381,20.5073 13,20.5073 C11.618,20.5073 10.5,19.3883 10.5,18.0073 C10.5,16.6263 11.618,15.5073 13,15.5073 C14.381,15.5073 15.5,16.6263 15.5,18.0073 L15.5,18.0073 Z" id="Stroke-1802"></path>
                    <path d="M17,24.5073 L9,24.5073 C9,22.2993 10.79,20.5073 13,20.5073 C15.21,20.5073 17,22.2993 17,24.5073 L17,24.5073 Z" id="Stroke-1803"></path>
                    <path d="M9.5,3.4932 L16.469,3.4932" id="Stroke-1804"></path>
                    <path d="M9.5,5.4932 L16.469,5.4932" id="Stroke-1805"></path>
                    <path d="M9.5,7.4932 L16.469,7.4932" id="Stroke-1806"></path>
                </g>
            </g>
        </g>
    </g>
</svg>