<?xml version="1.0" encoding="UTF-8" standalone="no"?>
<svg width="65px" height="66px" viewBox="0 0 65 66" version="1.1" xmlns="http://www.w3.org/2000/svg" xmlns:xlink="http://www.w3.org/1999/xlink">
    <!-- Generator: Sketch 3.8.3 (29802) - http://www.bohemiancoding.com/sketch -->
    <title>Group</title>
    <desc>Created with Sketch.</desc>
    <defs></defs>
    <g id="Page-1" stroke="none" stroke-width="1" fill="none" fill-rule="evenodd">
        <g id="beelineLogo" transform="translate(-28.000000, -28.000000)">
            <g id="Group" transform="translate(28.000000, 28.000000)">
                <path d="M56.9015712,34.4526923 C56.9015712,39.378 54.4359982,42.1278462 49.5046211,42.7024615 C43.5048521,43.6876154 37.6282348,44.2211538 31.875,44.3030769 C26.1217652,44.2211538 20.2453789,43.6876154 14.24561,42.7024615 C9.3142329,42.1278462 6.84865989,39.378 6.84865989,34.4526923 L6.84865989,11.6734615 C6.84865989,6.74815385 9.43761553,4.08023077 14.6155268,3.66992308 C20.4507856,3.25938462 26.2040203,3.09530769 31.875,3.17746154 C37.5462107,3.09530769 43.2992144,3.25938462 49.1347043,3.66992308 C54.3126155,4.08023077 56.9015712,6.74815385 56.9015712,11.6734615 L56.9015712,34.4526923 Z M53.3262477,54.8923846 C52.50439,55.7134615 51.4771257,56.1237692 50.2442237,56.1237692 C49.0935767,56.1237692 48.1074399,55.7134615 47.2853512,54.8923846 C46.3814695,54.0715385 45.9292976,53.0455385 45.9292976,51.8141538 C45.9292976,50.6649231 46.3814695,49.68 47.2853512,48.8591538 C48.1074399,47.9561538 49.0935767,47.5045385 50.2442237,47.5045385 C51.4771257,47.5045385 52.50439,47.9561538 53.3262477,48.8591538 C54.2303604,49.68 54.6825323,50.6649231 54.6825323,51.8141538 C54.6825323,53.0455385 54.2303604,54.0715385 53.3262477,54.8923846 L53.3262477,54.8923846 Z M16.5880314,54.8923846 C15.7661738,55.7134615 14.7798059,56.1237692 13.629159,56.1237692 C12.396488,56.1237692 11.3689926,55.7134615 10.5471349,54.8923846 C9.64302218,54.0715385 9.19108133,53.0455385 9.19108133,51.8141538 C9.19108133,50.6649231 9.64302218,49.68 10.5471349,48.8591538 C11.3689926,47.9561538 12.396488,47.5045385 13.629159,47.5045385 C14.7798059,47.5045385 15.7661738,47.9561538 16.5880314,48.8591538 C17.4921442,49.68 17.944085,50.6649231 17.944085,51.8141538 C17.944085,53.0455385 17.4921442,54.0715385 16.5880314,54.8923846 L16.5880314,54.8923846 Z M63.3821627,13.4513077 C62.9422366,13.0119231 62.4198244,12.792 61.8149261,12.792 L61.0804067,12.792 L60.9577172,7.14161538 C60.7934381,2.38061538 58.2867375,0 53.4376155,0 L10.6582717,0 C5.80914972,0 3.34357671,2.38061538 3.26132163,7.14161538 L3.13863216,12.792 L2.22712569,12.792 C1.62222736,12.792 1.09981516,13.0119231 0.659889094,13.4513077 C0.219963031,13.8906923 0,14.4124615 0,15.0166154 L0,18.6004615 C0,19.2046154 0.219963031,19.7263846 0.659889094,20.1657692 C1.09981516,20.6051538 1.62222736,20.8248462 2.22712569,20.8248462 L2.96441774,20.8248462 L2.27518484,52.5770769 C2.12592421,57.1938462 4.14879852,59.7092308 8.32809612,60.138 L8.32809612,64.0040769 C8.32809612,65.1533077 9.06769871,65.7279231 10.5471349,65.7279231 L16.2181146,65.7279231 C17.6975508,65.7279231 18.4371534,65.1533077 18.4371534,64.0040769 L18.4371534,60.2111538 L45.3128466,60.2111538 L45.3128466,64.1273077 C45.3128466,65.2765385 46.0526802,65.8511538 47.5321165,65.8511538 L53.2030961,65.8511538 C54.6825323,65.8511538 55.4221349,65.2765385 55.4221349,64.1273077 L55.4221349,60.1737692 C59.8451941,59.8520769 62.0205638,57.3214615 61.944085,52.5770769 L61.2548521,20.8248462 L61.8149261,20.8248462 C62.4198244,20.8248462 62.9422366,20.6051538 63.3821627,20.1657692 C63.8220887,19.7263846 64.0420518,19.2046154 64.0420518,18.6004615 L64.0420518,15.0166154 C64.0420518,14.4124615 63.8220887,13.8906923 63.3821627,13.4513077 L63.3821627,13.4513077 Z" id="Fill-1" fill="#FEE66F"></path>
                <path d="M34.6324399,25.4711308 L32.365573,28.1651308 C35.0543438,31.0520538 38.1490758,33.6269769 41.6463031,35.8926692 L43.9131701,33.1989 C40.3604898,30.9288231 37.2652957,28.3539 34.6324399,25.4711308" id="Fill-4" fill="#FFE76D"></path>
                <path d="M29.9882163,33.6699462 C30.1917745,35.3421 30.9228281,36.7064077 32.181146,37.7626385 C33.439695,38.8191 34.8796211,39.2769462 36.5009242,39.1366385 C37.9403882,39.0120231 39.1427911,38.5013308 40.1157579,37.6170231 C36.6580407,35.2188692 33.5951941,32.6691 30.9329945,29.9654077 C30.2356747,31.0583308 29.9163586,32.2915615 29.9882163,33.6699462" id="Fill-6" fill="#FFE76D"></path>
                <path d="M44.1593346,23.5277538 C42.9007856,22.4712923 41.4030961,22.0185231 39.6658041,22.1689846 C38.3055915,22.2866769 37.1463956,22.8029077 36.182902,23.7066 C38.7931146,26.4709846 41.8601201,29.0226 45.3776802,31.3639846 C46.0756932,30.2632154 46.3474122,29.0219077 46.178512,27.6354462 C46.0909427,25.9533692 45.4178835,24.5842154 44.1593346,23.5277538" id="Fill-8" fill="#FFE76D"></path>
                <path d="M24.5047597,24.4287231 C21.1919131,23.9000308 18.7168669,24.2891077 17.0803142,25.5961846 C15.9724122,26.2748769 15.367976,27.3761077 15.2667745,28.8998769 C15.1001848,31.0118769 16.1320702,32.1461077 18.3626617,32.3025692 C19.7824861,32.5291846 22.0056839,31.9287231 25.032024,30.5011846 C27.6681146,29.2824923 29.9733364,27.9465692 31.9474584,26.4936462 C28.7101664,25.4921077 26.2293438,24.8037231 24.5047597,24.4287231" id="Fill-10" fill="#FFE76D"></path>
                <path d="M27.2882163,23.2262077 C30.4069778,24.8789769 32.1038355,25.6059 32.3783272,25.4074385 C32.5876617,23.1168231 32.1313309,20.2137462 31.0093346,16.6982077 C29.6484288,12.4460538 28.054159,9.87459231 26.226525,8.98405385 C25.0610906,8.32751538 23.8023105,8.61136154 22.4501848,9.83559231 C21.2237523,11.1655154 20.55,12.4765154 20.4286969,13.7690538 C20.3579945,15.6396692 21.0398336,17.4452077 22.4742144,19.1856692 C23.7302218,20.8832077 25.3348891,22.2299769 27.2882163,23.2262077" id="Fill-12" fill="#FFE76D"></path>
            </g>
        </g>
    </g>
</svg>