<svg id="Layer_2" data-name="Layer 2" xmlns="http://www.w3.org/2000/svg" viewBox="0 0 135 40">
  <defs>
    <style>
      .cls-1 {
        fill: #a6a6a6;
      }

      .cls-2 {
        fill: #fff;
      }
    </style>
  </defs>
  <title>beeline_itunes</title>
  <g>
    <path class="cls-1" d="M135.82,45.5H10.35a4.74,4.74,0,0,1-4.73-4.73V10.23A4.73,4.73,0,0,1,10.35,5.5H135.82a4.8,4.8,0,0,1,4.8,4.73V40.77a4.8,4.8,0,0,1-4.8,4.73h0Z" transform="translate(-5.63 -5.5)"/>
    <path d="M139.66,40.77a3.83,3.83,0,0,1-3.83,3.83H10.35a3.83,3.83,0,0,1-3.84-3.83V10.22a3.84,3.84,0,0,1,3.84-3.84H135.82a3.83,3.83,0,0,1,3.83,3.84V40.77h0Z" transform="translate(-5.63 -5.5)"/>
    <g>
      <path class="cls-2" d="M35.75,25.28a5.8,5.8,0,0,1,2.76-4.86,5.94,5.94,0,0,0-4.68-2.53c-2-.21-3.88,1.18-4.88,1.18s-2.57-1.16-4.23-1.12a6.23,6.23,0,0,0-5.24,3.2c-2.27,3.92-.58,9.69,1.6,12.86,1.09,1.55,2.36,3.29,4,3.23s2.23-1,4.19-1,2.51,1,4.21,1,2.84-1.56,3.89-3.13a12.83,12.83,0,0,0,1.78-3.62A5.6,5.6,0,0,1,35.75,25.28Z" transform="translate(-5.63 -5.5)"/>
      <path class="cls-2" d="M32.55,15.81a5.71,5.71,0,0,0,1.31-4.09,5.81,5.81,0,0,0-3.76,1.94,5.43,5.43,0,0,0-1.34,3.94A4.8,4.8,0,0,0,32.55,15.81Z" transform="translate(-5.63 -5.5)"/>
    </g>
    <g>
      <path class="cls-2" d="M59.27,37H57l-1.24-3.91H51.43L50.25,37H48L52.32,23.7H55Zm-3.89-5.55L54.26,28q-0.18-.53-0.67-2.51h0q-0.2.85-.63,2.51l-1.1,3.48h3.57Z" transform="translate(-5.63 -5.5)"/>
      <path class="cls-2" d="M70.29,32.09A5.45,5.45,0,0,1,69,36,3.87,3.87,0,0,1,66,37.22a2.94,2.94,0,0,1-2.72-1.36h0v5.05H61.13V30.57q0-1.54-.08-3.16h1.88L63,28.93h0a3.79,3.79,0,0,1,6.07-.38A5.29,5.29,0,0,1,70.29,32.09Zm-2.17.08a4,4,0,0,0-.63-2.31,2.18,2.18,0,0,0-1.86-.95,2.22,2.22,0,0,0-1.43.52,2.43,2.43,0,0,0-.84,1.37,2.79,2.79,0,0,0-.1.65v1.6a2.56,2.56,0,0,0,.64,1.77,2.13,2.13,0,0,0,1.67.72,2.18,2.18,0,0,0,1.88-.93A4.08,4.08,0,0,0,68.12,32.17Z" transform="translate(-5.63 -5.5)"/>
      <path class="cls-2" d="M81.32,32.09A5.45,5.45,0,0,1,80,36a3.86,3.86,0,0,1-2.94,1.26,2.94,2.94,0,0,1-2.72-1.36h0v5.05H72.16V30.57q0-1.54-.08-3.16H74l0.12,1.52h0a3.79,3.79,0,0,1,6.07-.38A5.3,5.3,0,0,1,81.32,32.09Zm-2.17.08a4,4,0,0,0-.63-2.31,2.18,2.18,0,0,0-1.86-.95,2.22,2.22,0,0,0-1.43.52,2.42,2.42,0,0,0-.84,1.37,2.85,2.85,0,0,0-.1.65v1.6a2.57,2.57,0,0,0,.64,1.77,2.13,2.13,0,0,0,1.67.72,2.18,2.18,0,0,0,1.88-.93A4.08,4.08,0,0,0,79.15,32.17Z" transform="translate(-5.63 -5.5)"/>
      <path class="cls-2" d="M93.66,33.27A3.55,3.55,0,0,1,92.48,36a5.24,5.24,0,0,1-3.62,1.17,6.35,6.35,0,0,1-3.45-.83l0.49-1.78a5.84,5.84,0,0,0,3.08.85,2.91,2.91,0,0,0,1.88-.54,1.78,1.78,0,0,0,.67-1.45A1.85,1.85,0,0,0,91,32.08a5.14,5.14,0,0,0-1.84-1q-3.5-1.3-3.49-3.82a3.38,3.38,0,0,1,1.22-2.69,4.83,4.83,0,0,1,3.26-1,6.46,6.46,0,0,1,3,.63l-0.53,1.74a5.24,5.24,0,0,0-2.55-.61,2.58,2.58,0,0,0-1.76.55,1.58,1.58,0,0,0-.53,1.2,1.63,1.63,0,0,0,.61,1.3,6.91,6.91,0,0,0,1.94,1A6.57,6.57,0,0,1,92.86,31,3.38,3.38,0,0,1,93.66,33.27Z" transform="translate(-5.63 -5.5)"/>
      <path class="cls-2" d="M100.71,29H98.36v4.66q0,1.78,1.24,1.78a3.79,3.79,0,0,0,.95-0.1L100.61,37A4.83,4.83,0,0,1,99,37.2a2.56,2.56,0,0,1-2-.77,3.78,3.78,0,0,1-.71-2.59V29h-1.4v-1.6h1.4V25.65L98.36,25v2.39h2.35V29Z" transform="translate(-5.63 -5.5)"/>
      <path class="cls-2" d="M111.32,32.13a5.26,5.26,0,0,1-1.26,3.63,4.51,4.51,0,0,1-3.52,1.46,4.29,4.29,0,0,1-3.36-1.4,5.1,5.1,0,0,1-1.25-3.53,5.21,5.21,0,0,1,1.29-3.65,4.47,4.47,0,0,1,3.48-1.42,4.38,4.38,0,0,1,3.4,1.4A5,5,0,0,1,111.32,32.13Zm-2.21.07a4.32,4.32,0,0,0-.57-2.28,2.11,2.11,0,0,0-1.91-1.15,2.14,2.14,0,0,0-2,1.15,4.4,4.4,0,0,0-.57,2.32,4.31,4.31,0,0,0,.57,2.28,2.18,2.18,0,0,0,3.85,0A4.33,4.33,0,0,0,109.1,32.2Z" transform="translate(-5.63 -5.5)"/>
      <path class="cls-2" d="M118.25,29.28a3.7,3.7,0,0,0-.67-0.06,2,2,0,0,0-1.74.85,3.19,3.19,0,0,0-.53,1.9v5h-2.13l0-6.57q0-1.66-.08-3H115L115,29.25h0.06a3.28,3.28,0,0,1,1.07-1.52,2.58,2.58,0,0,1,1.54-.51,3.42,3.42,0,0,1,.53,0v2Z" transform="translate(-5.63 -5.5)"/>
      <path class="cls-2" d="M127.78,31.75a5,5,0,0,1-.08,1h-6.4a2.78,2.78,0,0,0,.93,2.17,3.17,3.17,0,0,0,2.09.67,7.07,7.07,0,0,0,2.59-.45l0.33,1.48a8,8,0,0,1-3.22.59,4.66,4.66,0,0,1-3.51-1.31,4.85,4.85,0,0,1-1.27-3.52,5.5,5.5,0,0,1,1.19-3.61,4.09,4.09,0,0,1,3.36-1.54,3.58,3.58,0,0,1,3.14,1.54A5.19,5.19,0,0,1,127.78,31.75Zm-2-.55a2.9,2.9,0,0,0-.41-1.64,1.86,1.86,0,0,0-1.7-.89,2,2,0,0,0-1.7.87,3.18,3.18,0,0,0-.63,1.66h4.44Z" transform="translate(-5.63 -5.5)"/>
    </g>
    <g>
      <path class="cls-2" d="M54.67,15.51a3.28,3.28,0,0,1-1.06,2.66,4.21,4.21,0,0,1-2.78.82,12.9,12.9,0,0,1-1.53-.08V12.48a11.31,11.31,0,0,1,1.81-.14,3.89,3.89,0,0,1,2.59.75A3,3,0,0,1,54.67,15.51Zm-1.1,0A2.39,2.39,0,0,0,53,13.78a2.39,2.39,0,0,0-1.77-.61,4.44,4.44,0,0,0-.84.07v4.89a5.53,5.53,0,0,0,.71,0,2.48,2.48,0,0,0,1.86-.67A2.68,2.68,0,0,0,53.57,15.54Z" transform="translate(-5.63 -5.5)"/>
      <path class="cls-2" d="M60.53,16.54a2.59,2.59,0,0,1-.62,1.78,2.22,2.22,0,0,1-1.73.72,2.11,2.11,0,0,1-1.65-.69,2.51,2.51,0,0,1-.62-1.74,2.56,2.56,0,0,1,.63-1.79,2.2,2.2,0,0,1,1.71-.7,2.16,2.16,0,0,1,1.67.69A2.49,2.49,0,0,1,60.53,16.54Zm-1.09,0a2.13,2.13,0,0,0-.28-1.12,1,1,0,0,0-.94-0.56,1.05,1.05,0,0,0-1,.56A2.16,2.16,0,0,0,57,16.59a2.13,2.13,0,0,0,.28,1.12,1.06,1.06,0,0,0,1,.56,1,1,0,0,0,.94-0.57A2.12,2.12,0,0,0,59.45,16.57Z" transform="translate(-5.63 -5.5)"/>
      <path class="cls-2" d="M68.39,14.22l-1.47,4.71H66l-0.61-2A15.32,15.32,0,0,1,65,15.36h0a11.15,11.15,0,0,1-.38,1.52l-0.65,2h-1l-1.39-4.71h1.08l0.53,2.24q0.19,0.79.32,1.51h0q0.12-.59.39-1.5l0.67-2.25h0.85l0.64,2.2q0.23,0.81.38,1.55h0a14.83,14.83,0,0,1,.32-1.55l0.57-2.2h1Z" transform="translate(-5.63 -5.5)"/>
      <path class="cls-2" d="M73.82,18.93h-1v-2.7q0-1.25-.95-1.25a1,1,0,0,0-.76.34,1.22,1.22,0,0,0-.29.81v2.8h-1V15.57q0-.62,0-1.35h0.92l0,0.74h0a1.51,1.51,0,0,1,.54-0.57,1.77,1.77,0,0,1,.95-0.27,1.5,1.5,0,0,1,1.1.43,2.07,2.07,0,0,1,.54,1.56v2.82Z" transform="translate(-5.63 -5.5)"/>
      <path class="cls-2" d="M76.71,18.93h-1V12.06h1v6.88Z" transform="translate(-5.63 -5.5)"/>
      <path class="cls-2" d="M82.88,16.54a2.59,2.59,0,0,1-.62,1.78,2.22,2.22,0,0,1-1.73.72,2.1,2.1,0,0,1-1.65-.69,2.51,2.51,0,0,1-.61-1.74,2.56,2.56,0,0,1,.64-1.79,2.2,2.2,0,0,1,1.71-.7,2.16,2.16,0,0,1,1.67.69A2.49,2.49,0,0,1,82.88,16.54Zm-1.09,0a2.13,2.13,0,0,0-.28-1.12,1,1,0,0,0-.94-0.56,1,1,0,0,0-1,.56,2.16,2.16,0,0,0-.28,1.14,2.13,2.13,0,0,0,.28,1.12,1.06,1.06,0,0,0,1,.56,1,1,0,0,0,.94-0.57A2.11,2.11,0,0,0,81.79,16.57Z" transform="translate(-5.63 -5.5)"/>
      <path class="cls-2" d="M88,18.93H87l-0.08-.54h0a1.61,1.61,0,0,1-1.38.65,1.42,1.42,0,0,1-1.08-.43,1.34,1.34,0,0,1-.37-1,1.46,1.46,0,0,1,.72-1.32,3.75,3.75,0,0,1,2-.45V15.8a0.84,0.84,0,0,0-1-.93,2.19,2.19,0,0,0-1.23.35l-0.21-.69A3,3,0,0,1,86,14.12a1.68,1.68,0,0,1,1.85,1.95v1.74A7.36,7.36,0,0,0,88,18.93Zm-1.09-1.62V16.59q-1.73,0-1.73.95a0.71,0.71,0,0,0,.2.55,0.73,0.73,0,0,0,.51.18,1.06,1.06,0,0,0,.64-0.22A0.89,0.89,0,0,0,86.87,17.31Z" transform="translate(-5.63 -5.5)"/>
      <path class="cls-2" d="M93.91,18.93H93l0-.76h0a1.57,1.57,0,0,1-1.51.86A1.77,1.77,0,0,1,90,18.37a2.61,2.61,0,0,1-.56-1.74A2.73,2.73,0,0,1,90,14.78a1.88,1.88,0,0,1,1.46-.66,1.41,1.41,0,0,1,1.33.64h0V12.06h1v5.61Q93.87,18.35,93.91,18.93Zm-1.09-2V16.16a1.54,1.54,0,0,0,0-.33,1.19,1.19,0,0,0-.38-0.64,1,1,0,0,0-.7-0.26,1.08,1.08,0,0,0-.92.47,2,2,0,0,0-.34,1.19,1.86,1.86,0,0,0,.32,1.14,1.08,1.08,0,0,0,.92.47,1,1,0,0,0,.83-0.39A1.29,1.29,0,0,0,92.82,16.94Z" transform="translate(-5.63 -5.5)"/>
      <path class="cls-2" d="M102.87,16.54a2.59,2.59,0,0,1-.62,1.78,2.21,2.21,0,0,1-1.73.72,2.11,2.11,0,0,1-1.65-.69,2.51,2.51,0,0,1-.61-1.74,2.56,2.56,0,0,1,.64-1.79,2.2,2.2,0,0,1,1.71-.7,2.15,2.15,0,0,1,1.67.69A2.49,2.49,0,0,1,102.87,16.54Zm-1.09,0a2.13,2.13,0,0,0-.28-1.12,1,1,0,0,0-.94-0.56,1.05,1.05,0,0,0-1,.56,2.16,2.16,0,0,0-.28,1.14,2.13,2.13,0,0,0,.28,1.12,1.07,1.07,0,0,0,1.89,0A2.13,2.13,0,0,0,101.79,16.57Z" transform="translate(-5.63 -5.5)"/>
      <path class="cls-2" d="M108.51,18.93h-1v-2.7q0-1.25-1-1.25a0.94,0.94,0,0,0-.76.34,1.21,1.21,0,0,0-.29.81v2.8h-1V15.57q0-.62,0-1.35h0.92l0,0.74h0a1.53,1.53,0,0,1,.54-0.57,1.77,1.77,0,0,1,1-.27,1.5,1.5,0,0,1,1.1.43,2.07,2.07,0,0,1,.54,1.56v2.82Z" transform="translate(-5.63 -5.5)"/>
      <path class="cls-2" d="M115.56,15h-1.15v2.29c0,0.58.21,0.87,0.61,0.87a1.85,1.85,0,0,0,.47,0l0,0.8a2.35,2.35,0,0,1-.81.12,1.25,1.25,0,0,1-1-.38,1.85,1.85,0,0,1-.35-1.27V15h-0.69V14.22h0.69V13.36l1-.31v1.17h1.15V15h0Z" transform="translate(-5.63 -5.5)"/>
      <path class="cls-2" d="M121.11,18.93h-1V16.25q0-1.27-.95-1.27a1,1,0,0,0-1,.73,1.32,1.32,0,0,0,0,.38v2.84h-1V12.06h1V14.9h0a1.58,1.58,0,0,1,1.42-.77,1.46,1.46,0,0,1,1.08.43,2.15,2.15,0,0,1,.53,1.58v2.8Z" transform="translate(-5.63 -5.5)"/>
      <path class="cls-2" d="M126.83,16.35a2.53,2.53,0,0,1,0,.48h-3.14a1.37,1.37,0,0,0,.46,1.07,1.56,1.56,0,0,0,1,.33,3.47,3.47,0,0,0,1.27-.22l0.16,0.73A4,4,0,0,1,125,19a2.28,2.28,0,0,1-1.72-.64,2.38,2.38,0,0,1-.62-1.73,2.7,2.7,0,0,1,.58-1.77,2,2,0,0,1,1.65-.76,1.75,1.75,0,0,1,1.54.76A2.52,2.52,0,0,1,126.83,16.35Zm-1-.27a1.41,1.41,0,0,0-.2-0.81,0.92,0.92,0,0,0-.83-0.44,1,1,0,0,0-.83.43,1.59,1.59,0,0,0-.31.81h2.18Z" transform="translate(-5.63 -5.5)"/>
    </g>
  </g>
</svg>
