<?xml version="1.0" encoding="UTF-8" standalone="no"?>
<svg width="26px" height="24px" viewBox="0 0 26 24" version="1.1" xmlns="http://www.w3.org/2000/svg" xmlns:xlink="http://www.w3.org/1999/xlink">
    <!-- Generator: Sketch 3.8.3 (29802) - http://www.bohemiancoding.com/sketch -->
    <title>Icon_Affordable</title>
    <desc>Created with Sketch.</desc>
    <defs></defs>
    <g id="Page-2" stroke="none" stroke-width="1" fill="none" fill-rule="evenodd" stroke-linecap="round" stroke-linejoin="round">
        <g id="Desktop" transform="translate(-186.000000, -386.000000)">
            <g id="Icon_Affordable" transform="translate(186.000000, 386.000000)">
                <g id="Group" transform="translate(2.000000, 0.000000)" stroke="#4EFBCA" fill="#44FCC9">
                    <path d="M20.5,15.5 L21.498,15.5 C22.599,15.5 23.498,14.6 23.498,13.5 L23.498,12.5 C23.498,11.4 22.599,10.5 21.498,10.5 L19.5909091,10.5 L19.5285714,10.1571429 L20.5,10.5 L20.5,7.5 C20.5,6.21289916 19.6779228,5.10834692 18.5335891,4.68474002 L18.5,4.5 L18.5,2.5 C18.5,1.4 17.149,0.5 15.5,0.5 L3.5,0.5 C1.85,0.5 0.5,1.85 0.5,3.5 L0.5,18.5 C0.5,20.15 1.85,21.5 3.5,21.5 L17.5,21.5 C19.149,21.5 20.5,20.15 20.5,18.5 L20.5,15.5 Z" id="Combined-Shape"></path>
                </g>
                <g id="Group" transform="translate(0.000000, 2.000000)" stroke="#493861">
                    <path d="M17.5,13 C17.5,13.276 17.275,13.5 17,13.5 C16.723,13.5 16.5,13.276 16.5,13 C16.5,12.724 16.723,12.5 17,12.5 C17.275,12.5 17.5,12.724 17.5,13 L17.5,13 Z" id="Stroke-847"></path>
                    <path d="M4.5,6.5 L5.5,6.5" id="Stroke-848"></path>
                    <path d="M7.5,6.5 L8.5,6.5" id="Stroke-849"></path>
                    <path d="M10.5,6.5 L11.5,6.5" id="Stroke-850"></path>
                    <path d="M13.5,6.5 L14.5,6.5" id="Stroke-851"></path>
                    <path d="M16.5,6.5 L17.5,6.5" id="Stroke-852"></path>
                    <path d="M4.5,19.5 L5.5,19.5" id="Stroke-853"></path>
                    <path d="M7.5,19.5 L8.5,19.5" id="Stroke-854"></path>
                    <path d="M10.5,19.5 L11.5,19.5" id="Stroke-855"></path>
                    <path d="M13.5,19.5 L14.5,19.5" id="Stroke-856"></path>
                    <path d="M16.5,19.5 L17.5,19.5" id="Stroke-857"></path>
                    <path d="M23.498,13.5 C23.498,14.6 22.599,15.5 21.498,15.5 L16.498,15.5 C15.398,15.5 14.498,14.6 14.498,13.5 L14.498,12.5 C14.498,11.4 15.398,10.5 16.498,10.5 L21.498,10.5 C22.599,10.5 23.498,11.4 23.498,12.5 L23.498,13.5 L23.498,13.5 Z" id="Stroke-858"></path>
                    <path d="M20.5,10.5 L20.5,7.5 C20.5,5.85 19.149,4.5 17.5,4.5 L3.5,4.5" id="Stroke-859"></path>
                    <path d="M15.5,2.5 L3.5,2.5 C2.947,2.5 2.5,2.948 2.5,3.5 C2.5,4.053 2.947,4.5 3.5,4.5" id="Stroke-860"></path>
                    <path d="M20.5,15.5 L20.5,18.5 C20.5,20.15 19.149,21.5 17.5,21.5 L3.5,21.5 C1.85,21.5 0.5,20.15 0.5,18.5 L0.5,3.5 C0.5,1.85 1.85,0.5 3.5,0.5 L15.5,0.5 C17.149,0.5 18.5,1.4 18.5,2.5 L18.5,4.5" id="Stroke-861"></path>
                </g>
            </g>
        </g>
    </g>
</svg>