<?xml version="1.0" encoding="UTF-8" standalone="no"?>
<svg width="26px" height="24px" viewBox="0 0 26 24" version="1.1" xmlns="http://www.w3.org/2000/svg" xmlns:xlink="http://www.w3.org/1999/xlink">
    <!-- Generator: Sketch 3.8.3 (29802) - http://www.bohemiancoding.com/sketch -->
    <title>Icon_Comfortable</title>
    <desc>Created with Sketch.</desc>
    <defs></defs>
    <g id="Page-2" stroke="none" stroke-width="1" fill="none" fill-rule="evenodd">
        <g id="Desktop" transform="translate(-236.000000, -387.000000)">
            <g id="Icon_Comfortable" transform="translate(236.000000, 388.000000)">
                <g id="Stroke-170-+-Stroke-171-+-Fill-172" transform="translate(7.000000, 0.000000)" stroke="#44FCC9" stroke-linecap="round" fill="#38FDC8" stroke-linejoin="round">
                    <path d="M15,14 L15,14 C15.828,14 16.5,14.672 16.5,15.5 C16.5,16.329 15.828,17 15,17 L14,17 C14.828,17 15.5,17.672 15.5,18.5 C15.5,19.329 14.828,19.5 14,19.5 L7.5,19.5 C4.649,19.5 4,19 0.5,18.5 L0.5,10 C2.95,10 7,5.5 7,1.5 C7,-0.081 9.188,-0.67 10,2.219 C10.5,4 9,7.5 9,7.5 L17,7.5 C17.828,7.5 18.5,8.172 18.5,9 C18.5,9.829 17.828,11 17,11 L16,11 C16.828,11 17.5,11.672 17.5,12.5 C17.5,13.329 16.828,14 16,14 L15,14" id="Stroke-170"></path>
                </g>
                <path d="M20,16 L20,16 C20.828,16 21.5,16.672 21.5,17.5 C21.5,18.329 20.828,19 20,19 L19,19 C19.828,19 20.5,19.672 20.5,20.5 C20.5,21.329 19.828,21.5 19,21.5 L12.5,21.5 C9.649,21.5 9,21 5.5,20.5 L5.5,12 C7.95,12 12,7.5 12,3.5 C12,1.919 14.188,1.33 15,4.219 C15.5,6 14,9.5 14,9.5 L22,9.5 C22.828,9.5 23.5,10.172 23.5,11 C23.5,11.829 22.828,13 22,13 L21,13 C21.828,13 22.5,13.672 22.5,14.5 C22.5,15.329 21.828,16 21,16 L20,16" id="Stroke-170" stroke="#493960" stroke-linecap="round" stroke-linejoin="round"></path>
                <polygon id="Stroke-171" stroke="#493A5F" stroke-linecap="round" stroke-linejoin="round" points="5.5 22.5 0.5 22.5 0.5 10.5 5.5 10.5"></polygon>
                <path d="M3.5,20 C3.224,20 3,20.224 3,20.5 C3,20.776 3.224,21 3.5,21 C3.776,21 4,20.776 4,20.5 C4,20.224 3.776,20 3.5,20" id="Fill-172" fill="#493960"></path>
            </g>
        </g>
    </g>
</svg>