<?xml version="1.0" encoding="UTF-8" standalone="no"?>
<svg width="27px" height="25px" viewBox="0 0 27 25" version="1.1" xmlns="http://www.w3.org/2000/svg" xmlns:xlink="http://www.w3.org/1999/xlink">
    <!-- Generator: Sketch 3.8.3 (29802) - http://www.bohemiancoding.com/sketch -->
    <title>Icon_Affordable</title>
    <desc>Created with Sketch.</desc>
    <defs></defs>
    <g id="Page-2" stroke="none" stroke-width="1" fill="none" fill-rule="evenodd" stroke-linecap="round" stroke-linejoin="round">
        <g id="Desktop" transform="translate(-185.000000, -386.000000)">
            <g id="Icon_Affordable" transform="translate(186.000000, 387.000000)">
                <g id="Group" transform="translate(2.000000, 0.000000)" stroke="#4EFBCA" fill="#44FCC9">
                    <path d="M19.6458333,14.7954545 L20.60225,14.7954545 C21.657375,14.7954545 22.5189167,13.9363636 22.5189167,12.8863636 L22.5189167,11.9318182 C22.5189167,10.8818182 21.657375,10.0227273 20.60225,10.0227273 L18.7746212,10.0227273 L18.714881,9.69545455 L19.6458333,10.0227273 L19.6458333,7.15909091 C19.6458333,5.93049465 18.8580093,4.87614933 17.7613562,4.47179729 L17.7291667,4.29545455 L17.7291667,2.38636364 C17.7291667,1.33636364 16.4344583,0.477272727 14.8541667,0.477272727 L3.35416667,0.477272727 C1.77291667,0.477272727 0.479166667,1.76590909 0.479166667,3.34090909 L0.479166667,17.6590909 C0.479166667,19.2340909 1.77291667,20.5227273 3.35416667,20.5227273 L16.7708333,20.5227273 C18.351125,20.5227273 19.6458333,19.2340909 19.6458333,17.6590909 L19.6458333,14.7954545 Z" id="Combined-Shape"></path>
                </g>
                <g id="Group" transform="translate(0.000000, 2.000000)" stroke="#493861">
                    <path d="M16.7708333,12.4090909 C16.7708333,12.6725455 16.5552083,12.8863636 16.2916667,12.8863636 C16.0262083,12.8863636 15.8125,12.6725455 15.8125,12.4090909 C15.8125,12.1456364 16.0262083,11.9318182 16.2916667,11.9318182 C16.5552083,11.9318182 16.7708333,12.1456364 16.7708333,12.4090909 L16.7708333,12.4090909 Z" id="Stroke-847"></path>
                    <path d="M4.3125,6.20454545 L5.27083333,6.20454545" id="Stroke-848"></path>
                    <path d="M7.1875,6.20454545 L8.14583333,6.20454545" id="Stroke-849"></path>
                    <path d="M10.0625,6.20454545 L11.0208333,6.20454545" id="Stroke-850"></path>
                    <path d="M12.9375,6.20454545 L13.8958333,6.20454545" id="Stroke-851"></path>
                    <path d="M15.8125,6.20454545 L16.7708333,6.20454545" id="Stroke-852"></path>
                    <path d="M4.3125,18.6136364 L5.27083333,18.6136364" id="Stroke-853"></path>
                    <path d="M7.1875,18.6136364 L8.14583333,18.6136364" id="Stroke-854"></path>
                    <path d="M10.0625,18.6136364 L11.0208333,18.6136364" id="Stroke-855"></path>
                    <path d="M12.9375,18.6136364 L13.8958333,18.6136364" id="Stroke-856"></path>
                    <path d="M15.8125,18.6136364 L16.7708333,18.6136364" id="Stroke-857"></path>
                    <path d="M22.5189167,12.8863636 C22.5189167,13.9363636 21.657375,14.7954545 20.60225,14.7954545 L15.8105833,14.7954545 C14.7564167,14.7954545 13.8939167,13.9363636 13.8939167,12.8863636 L13.8939167,11.9318182 C13.8939167,10.8818182 14.7564167,10.0227273 15.8105833,10.0227273 L20.60225,10.0227273 C21.657375,10.0227273 22.5189167,10.8818182 22.5189167,11.9318182 L22.5189167,12.8863636 L22.5189167,12.8863636 Z" id="Stroke-858"></path>
                    <path d="M19.6458333,10.0227273 L19.6458333,7.15909091 C19.6458333,5.58409091 18.351125,4.29545455 16.7708333,4.29545455 L3.35416667,4.29545455" id="Stroke-859"></path>
                    <path d="M14.8541667,2.38636364 L3.35416667,2.38636364 C2.82420833,2.38636364 2.39583333,2.814 2.39583333,3.34090909 C2.39583333,3.86877273 2.82420833,4.29545455 3.35416667,4.29545455" id="Stroke-860"></path>
                    <path d="M19.6458333,14.7954545 L19.6458333,17.6590909 C19.6458333,19.2340909 18.351125,20.5227273 16.7708333,20.5227273 L3.35416667,20.5227273 C1.77291667,20.5227273 0.479166667,19.2340909 0.479166667,17.6590909 L0.479166667,3.34090909 C0.479166667,1.76590909 1.77291667,0.477272727 3.35416667,0.477272727 L14.8541667,0.477272727 C16.4344583,0.477272727 17.7291667,1.33636364 17.7291667,2.38636364 L17.7291667,4.29545455" id="Stroke-861"></path>
                </g>
            </g>
        </g>
    </g>
</svg>