<?xml version="1.0" encoding="UTF-8" standalone="no"?>
<svg width="25px" height="26px" viewBox="0 0 25 26" version="1.1" xmlns="http://www.w3.org/2000/svg" xmlns:xlink="http://www.w3.org/1999/xlink">
    <!-- Generator: Sketch 3.8.3 (29802) - http://www.bohemiancoding.com/sketch -->
    <title>Icon_Adaptive</title>
    <desc>Created with Sketch.</desc>
    <defs></defs>
    <g id="Page-2" stroke="none" stroke-width="1" fill="none" fill-rule="evenodd" stroke-linejoin="round">
        <g id="Desktop" transform="translate(-139.000000, -385.000000)">
            <g id="Icon_Adaptive" transform="translate(139.000000, 385.000000)">
                <g id="Group-2" transform="translate(1.000000, 0.545154)" stroke="#44FCC9" fill="#44FCC9">
                    <path d="M17,10 C17,12.21 15.209,14 13,14 C10.791,14 9,12.21 9,10 C9,7.791 10.791,6 13,6 C15.209,6 17,7.791 17,10 L17,10 Z" id="Stroke-537"></path>
                    <path d="M3,4.5 C3,5.329 2.329,6 1.5,6 C0.671,6 0,5.329 0,4.5 C0,3.672 0.671,3 1.5,3 C2.329,3 3,3.672 3,4.5 L3,4.5 Z" id="Stroke-538"></path>
                    <path d="M23,1.5 C23,2.328 22.329,3 21.5,3 C20.671,3 20,2.328 20,1.5 C20,0.671 20.671,0 21.5,0 C22.329,0 23,0.671 23,1.5 L23,1.5 Z" id="Stroke-539"></path>
                    <path d="M3,21.5 C3,22.329 2.329,23 1.5,23 C0.671,23 0,22.329 0,21.5 C0,20.672 0.671,20 1.5,20 C2.329,20 3,20.672 3,21.5 L3,21.5 Z" id="Stroke-540"></path>
                    <path d="M14,21.5 C14,22.329 13.329,23 12.5,23 C11.671,23 11,22.329 11,21.5 C11,20.672 11.671,20 12.5,20 C13.329,20 14,20.672 14,21.5 L14,21.5 Z" id="Stroke-541"></path>
                    <path d="M23,13.5 C23,14.328 22.329,15 21.5,15 C20.672,15 20,14.328 20,13.5 C20,12.672 20.672,12 21.5,12 C22.329,12 23,12.672 23,13.5 L23,13.5 Z" id="Stroke-547"></path>
                </g>
                <g id="Group" transform="translate(0.000000, 1.545154)" stroke="#493960">
                    <path d="M17.499,10.5 C17.499,12.71 15.708,14.5 13.499,14.5 C11.29,14.5 9.499,12.71 9.499,10.5 C9.499,8.291 11.29,6.5 13.499,6.5 C15.708,6.5 17.499,8.291 17.499,10.5 L17.499,10.5 Z" id="Stroke-537"></path>
                    <path d="M3.5,5.5 C3.5,6.329 2.829,7 2,7 C1.171,7 0.5,6.329 0.5,5.5 C0.5,4.672 1.171,4 2,4 C2.829,4 3.5,4.672 3.5,5.5 L3.5,5.5 Z" id="Stroke-538"></path>
                    <path d="M23.5,2 C23.5,2.828 22.829,3.5 22,3.5 C21.171,3.5 20.5,2.828 20.5,2 C20.5,1.171 21.171,0.5 22,0.5 C22.829,0.5 23.5,1.171 23.5,2 L23.5,2 Z" id="Stroke-539"></path>
                    <path d="M3.5,22 C3.5,22.829 2.829,23.5 2,23.5 C1.171,23.5 0.5,22.829 0.5,22 C0.5,21.172 1.171,20.5 2,20.5 C2.829,20.5 3.5,21.172 3.5,22 L3.5,22 Z" id="Stroke-540"></path>
                    <path d="M14.999,22 C14.999,22.829 14.328,23.5 13.499,23.5 C12.67,23.5 11.999,22.829 11.999,22 C11.999,21.172 12.67,20.5 13.499,20.5 C14.328,20.5 14.999,21.172 14.999,22 L14.999,22 Z" id="Stroke-541"></path>
                    <path d="M3.0596,20.9395 L10.6796,13.3375" id="Stroke-542"></path>
                    <path d="M16.333,7.6768 L20.938,3.0618" id="Stroke-543"></path>
                    <path d="M3.3496,6.1504 L9.8226,8.9244" id="Stroke-544"></path>
                    <path d="M20.5615,14.0293 L16.9445,12.5343" id="Stroke-545"></path>
                    <path d="M13.499,20.5 L13.499,14.5" id="Stroke-546"></path>
                    <path d="M23.5,14.5 C23.5,15.328 22.829,16 22,16 C21.172,16 20.5,15.328 20.5,14.5 C20.5,13.672 21.172,13 22,13 C22.829,13 23.5,13.672 23.5,14.5 L23.5,14.5 Z" id="Stroke-547"></path>
                </g>
            </g>
        </g>
    </g>
</svg>